<?xml version="1.0" encoding="utf-8"?>
<!-- Generator: Adobe Illustrator 21.1.0, SVG Export Plug-In . SVG Version: 6.00 Build 0)  -->
<svg version="1.1" id="Calque_1" xmlns="http://www.w3.org/2000/svg" xmlns:xlink="http://www.w3.org/1999/xlink" x="0px" y="0px"
	 viewBox="0 0 2000 379.8" style="enable-background:new 0 0 2000 379.8;" xml:space="preserve">
<style type="text/css">
	.st0{fill:#D4001D;}
	.st1{clip-path:url(#SVGID_2_);fill:url(#SVGID_3_);}
	.st2{fill:#FFFFFF;}
</style>
<g>
	<g>
		<rect x="125.4" y="332.4" class="st0" width="167.7" height="7"/>
		<rect x="1707.9" y="332.4" class="st0" width="167.7" height="7"/>
		<g>
			<g>
				<g>
					<g>
						<defs>
							<path id="SVGID_1_" d="M715.8,117.5v10L645.5,226h37.2l54.2-77.3l54.2,77.3h22.1v3h14.1v-14.1h-14.1v3h-18.1l-58.2-82.3
								L678.7,218h-17.1l62.3-87.4h6v-14.1L715.8,117.5L715.8,117.5z M803.2,69.3v10L770,123.6L851.4,237h-67.3l-40.2-58.2v-11
								h-14.1v14.1h6l44.2,63.3h86.4L780,123.7l30.1-40.2h7V69.3H803.2z M791.1,28.2l-54.2,72.3l-54.2-72.3h-37.2l34.1,45.2v10h14.1
								V69.3h-7l-25.1-33.1h17.1l58.2,77.3l58.2-77.3h17.1l-67.3,88.4l34.1,48.2v10h14.1v-14.1h-7L755,124.6l73.3-96.4
								C828.3,28.2,791.1,28.2,791.1,28.2z M683.7,5.1v3h-77.3l87.4,115.5l-86.4,121.5h86.4l11-16.1h7v-14.1h-14.1v10l-8,12h-67.3
								l81.3-113.5L621.4,16.1h62.3v3h14.1v-14C697.7,5.1,683.7,5.1,683.7,5.1z M851.4,5.1v3h-71.3l-44.2,58.2l-11-15.1v-10h-14.1
								v15.1h7l18.1,23.1l48.2-63.3h68.3v3h14.1v-14C866.4,5.1,851.4,5.1,851.4,5.1z"/>
						</defs>
						<clipPath id="SVGID_2_">
							<use xlink:href="#SVGID_1_"  style="overflow:visible;"/>
						</clipPath>
						
							<linearGradient id="SVGID_3_" gradientUnits="userSpaceOnUse" x1="2015.046" y1="94.0395" x2="2015.8295" y2="94.0395" gradientTransform="matrix(0 306.3538 -306.3538 0 29544.7949 -617311.3125)">
							<stop  offset="0" style="stop-color:#D32027"/>
							<stop  offset="1" style="stop-color:#961A24"/>
						</linearGradient>
						<rect x="605.4" y="5.1" class="st1" width="260.1" height="240"/>
					</g>
				</g>
			</g>
		</g>
		<g>
			<path class="st2" d="M866.4,126.6c0-67.3,51.2-122.5,123.5-122.5c43.2,0,82.3,22.1,101.4,57.2l-16.1,9
				c-16.1-29.1-48.2-49.2-85.4-49.2c-62.3,0-105.4,47.2-105.4,105.4S927.7,232,989.9,232c37.2,0,70.3-20.1,86.4-50.2l16.1,9
				c-19.1,35.1-58.2,58.2-102.4,58.2C917.6,249.1,866.4,194.9,866.4,126.6z"/>
			<path class="st2" d="M1099.4,126.6c0-67.3,54.2-122.5,122.5-122.5s122.5,54.2,122.5,122.5c0,67.3-54.2,122.5-122.5,122.5
				S1099.4,194.9,1099.4,126.6z M1326.3,126.6c0-58.2-46.2-105.4-104.4-105.4c-58.2,0-104.4,47.2-104.4,105.4S1163.7,232,1221.9,232
				S1326.3,184.8,1326.3,126.6z"/>
			<path class="st2" d="M1461.9,148.7h-75.3v97.4h-18.1V8.1h93.4c38.2,0,70.3,31.1,70.3,70.3c0,32.1-22.1,59.2-52.2,67.3l59.2,99.4
				h-21.1L1461.9,148.7z M1386.6,131.6h75.3c29.1,0,52.2-24.1,52.2-53.2s-23.1-53.2-52.2-53.2h-75.3V131.6z"/>
			<path class="st2" d="M1709.9,81.4c0,41.2-31.1,73.3-74.3,73.3h-62.3v90.4h-18.1V8.1h80.3C1678.8,8.1,1709.9,40.2,1709.9,81.4z
				 M1692.9,81.4c0-33.1-23.1-56.2-56.2-56.2h-62.3v112.5h62.3C1668.8,137.6,1692.9,114.5,1692.9,81.4z"/>
			<path class="st2" d="M1712.9,192.9l16.1-9c8,28.1,32.1,48.2,71.3,48.2s59.2-20.1,59.2-47.2c0-28.1-25.1-39.2-61.3-51.2
				c-39.2-13.1-75.3-24.1-75.3-65.3c0-39.2,31.1-63.3,71.3-63.3c39.2,0,64.3,22.1,76.3,50.2l-15.1,8c-9-21.1-27.1-41.2-61.3-41.2
				c-33.1,0-53.2,19.1-53.2,46.2c0,28.1,24.1,37.2,58.2,48.2c42.2,14.1,78.3,27.1,78.3,68.3c0,39.2-31.1,65.3-78.3,65.3
				C1755.1,249.1,1724,227,1712.9,192.9z"/>
		</g>
		<path class="st2" d="M429.6,228v17.1H300.1V8.1h18.1V228H429.6z"/>
		<path class="st2" d="M280,82.4c0,41.2-31.1,73.3-73.3,73.3h-62.3v90.4h-19.1V8.1h80.3C248.9,8.1,280,40.2,280,82.4z M261.9,82.4
			c0-33.1-23.1-56.2-56.2-56.2h-62.3v112.5h62.3C238.8,138.6,261.9,114.5,261.9,82.4z"/>
		<path class="st2" d="M585.3,228v17.1H449.7V8.1h134.6v17.1H467.8v92.4h108.4v17.1H467.8V229h117.5V228z"/>
	</g>
</g>
<g>
	<path class="st2" d="M347.1,331.9c0-6.7,1.6-12,4.7-16.1c3.2-4,7.3-6.1,12.4-6.1s9.1,1.7,12.1,5.2v-22.6h7.4V354h-6.8l-0.4-4.7
		c-3,3.6-7.1,5.5-12.4,5.5c-5,0-9.1-2.1-12.3-6.2s-4.8-9.5-4.8-16.1L347.1,331.9L347.1,331.9z M354.5,332.7c0,4.9,1,8.8,3,11.5
		c2,2.8,4.8,4.2,8.4,4.2c4.7,0,8.1-2.1,10.3-6.3v-19.9c-2.2-4.1-5.6-6.1-10.2-6.1c-3.6,0-6.5,1.4-8.5,4.2
		C355.5,323.1,354.5,327.2,354.5,332.7z"/>
	<path class="st2" d="M422.7,354.8c-5.9,0-10.7-1.9-14.4-5.8c-3.7-3.9-5.5-9-5.5-15.5v-1.4c0-4.3,0.8-8.1,2.5-11.5
		c1.6-3.4,3.9-6,6.9-7.9s6.2-2.9,9.6-2.9c5.6,0,10,1.9,13.2,5.6s4.7,9,4.7,16v3.1h-29.4c0.1,4.3,1.4,7.7,3.7,10.4
		c2.4,2.6,5.4,4,9.1,4c2.6,0,4.8-0.5,6.7-1.6c1.8-1.1,3.4-2.5,4.8-4.3l4.5,3.5C435.4,352,430,354.8,422.7,354.8z M421.8,315.9
		c-3,0-5.5,1.1-7.5,3.3c-2,2.2-3.3,5.2-3.8,9.2h21.7v-0.6c-0.2-3.8-1.2-6.7-3-8.8C427.4,316.9,424.9,315.9,421.8,315.9z"/>
	<path class="st2" d="M475.2,348.7c2.6,0,5-0.8,6.9-2.4c2-1.6,3.1-3.6,3.3-6h7c-0.1,2.5-1,4.9-2.6,7.1s-3.7,4-6.3,5.4
		c-2.6,1.3-5.4,2-8.4,2c-5.9,0-10.6-2-14.1-5.9s-5.2-9.3-5.2-16.2v-1.2c0-4.2,0.8-8,2.3-11.3s3.8-5.8,6.7-7.7
		c2.9-1.8,6.3-2.7,10.3-2.7c4.9,0,8.9,1.5,12.1,4.4s4.9,6.7,5.2,11.3h-7c-0.2-2.8-1.3-5.1-3.2-6.9c-1.9-1.8-4.3-2.7-7.1-2.7
		c-3.8,0-6.7,1.4-8.8,4.1c-2.1,2.7-3.1,6.6-3.1,11.8v1.4c0,5,1,8.8,3.1,11.5C468.4,347.4,471.3,348.7,475.2,348.7z"/>
	<path class="st2" d="M528.3,354.8c-5.9,0-10.7-1.9-14.4-5.8s-5.5-9-5.5-15.5v-1.4c0-4.3,0.8-8.1,2.5-11.5c1.6-3.4,3.9-6,6.9-7.9
		s6.2-2.9,9.6-2.9c5.6,0,10,1.9,13.2,5.6s4.7,9,4.7,16v3.1h-29.4c0.1,4.3,1.4,7.7,3.7,10.4c2.4,2.6,5.4,4,9.1,4
		c2.6,0,4.8-0.5,6.7-1.6c1.8-1.1,3.4-2.5,4.8-4.3l4.5,3.5C541,352,535.5,354.8,528.3,354.8z M527.3,315.9c-3,0-5.5,1.1-7.5,3.3
		c-2,2.2-3.3,5.2-3.8,9.2h21.7v-0.6c-0.2-3.8-1.2-6.7-3-8.8C532.9,316.9,530.4,315.9,527.3,315.9z"/>
	<path class="st2" d="M570.3,310.6l0.2,5.5c3.3-4.2,7.6-6.3,13-6.3c9.2,0,13.8,5.2,13.9,15.5V354H590v-28.7c0-3.1-0.7-5.4-2.1-6.9
		c-1.4-1.5-3.6-2.2-6.6-2.2c-2.4,0-4.5,0.6-6.3,1.9s-3.2,3-4.3,5.1V354h-7.4v-43.4H570.3z"/>
	<path class="st2" d="M628.2,300.1v10.5h8.1v5.7h-8.1v26.9c0,1.7,0.4,3,1.1,3.9c0.7,0.9,2,1.3,3.7,1.3c0.9,0,2-0.2,3.5-0.5v6
		c-2,0.5-3.8,0.8-5.7,0.8c-3.3,0-5.8-1-7.5-3s-2.5-4.9-2.5-8.5v-26.9h-7.9v-5.7h7.9v-10.5L628.2,300.1L628.2,300.1z"/>
	<path class="st2" d="M675.5,317.2c-1.1-0.2-2.3-0.3-3.6-0.3c-4.9,0-8.2,2.1-9.9,6.2V354h-7.4v-43.4h7.2l0.1,5
		c2.4-3.9,5.9-5.8,10.3-5.8c1.4,0,2.5,0.2,3.3,0.6L675.5,317.2L675.5,317.2z"/>
	<path class="st2" d="M717,354c-0.4-0.9-0.8-2.4-1-4.6c-3.4,3.6-7.6,5.4-12.4,5.4c-4.3,0-7.8-1.2-10.5-3.6s-4.1-5.5-4.1-9.2
		c0-4.5,1.7-8,5.2-10.5c3.4-2.5,8.3-3.7,14.5-3.7h7.2v-3.4c0-2.6-0.8-4.7-2.3-6.2c-1.6-1.5-3.8-2.3-6.9-2.3c-2.6,0-4.9,0.7-6.7,2
		s-2.7,3-2.7,4.9h-7.5c0-2.2,0.8-4.3,2.3-6.3s3.6-3.6,6.3-4.8c2.6-1.2,5.5-1.8,8.7-1.8c5,0,8.9,1.3,11.7,3.7
		c2.8,2.5,4.3,5.9,4.4,10.3v20c0,4,0.5,7.2,1.5,9.5v0.6H717z M704.7,348.3c2.3,0,4.5-0.6,6.6-1.8c2.1-1.2,3.6-2.8,4.5-4.7v-8.9H710
		c-9.1,0-13.6,2.7-13.6,8c0,2.3,0.8,4.1,2.3,5.5C700.3,347.7,702.2,348.3,704.7,348.3z"/>
	<path class="st2" d="M752.5,354H745v-61.6h7.4L752.5,354L752.5,354z"/>
	<path class="st2" d="M773.9,299.1c0-1.2,0.4-2.2,1.1-3c0.7-0.8,1.8-1.2,3.3-1.2c1.4,0,2.5,0.4,3.3,1.2c0.7,0.8,1.1,1.8,1.1,3
		s-0.4,2.2-1.1,3c-0.7,0.8-1.8,1.2-3.3,1.2c-1.4,0-2.5-0.4-3.3-1.2C774.3,301.3,773.9,300.3,773.9,299.1z M781.9,354h-7.4v-43.4h7.4
		V354z"/>
	<path class="st2" d="M810.3,347.9h25.4v6.1h-34.4v-5.5l23.9-31.8h-23.6v-6.1h32.9v5.3L810.3,347.9z"/>
	<path class="st2" d="M870.9,354.8c-5.9,0-10.7-1.9-14.4-5.8s-5.5-9-5.5-15.5v-1.4c0-4.3,0.8-8.1,2.5-11.5c1.6-3.4,3.9-6,6.9-7.9
		s6.2-2.9,9.6-2.9c5.6,0,10,1.9,13.2,5.6s4.7,9,4.7,16v3.1h-29.4c0.1,4.3,1.4,7.7,3.7,10.4c2.4,2.6,5.4,4,9.1,4
		c2.6,0,4.8-0.5,6.7-1.6c1.8-1.1,3.4-2.5,4.8-4.3l4.5,3.5C883.6,352,878.2,354.8,870.9,354.8z M870,315.9c-3,0-5.5,1.1-7.5,3.3
		c-2,2.2-3.3,5.2-3.8,9.2h21.7v-0.6c-0.2-3.8-1.2-6.7-3-8.8C875.5,316.9,873.1,315.9,870,315.9z"/>
	<path class="st2" d="M904.1,331.9c0-6.7,1.6-12,4.7-16.1c3.2-4,7.3-6.1,12.4-6.1c5.1,0,9.1,1.7,12.1,5.2v-22.6h7.4V354h-6.8
		l-0.4-4.7c-3,3.6-7.1,5.5-12.4,5.5c-5,0-9.1-2.1-12.3-6.2s-4.8-9.5-4.8-16.1L904.1,331.9L904.1,331.9z M911.6,332.7
		c0,4.9,1,8.8,3,11.5c2,2.8,4.8,4.2,8.4,4.2c4.7,0,8.1-2.1,10.3-6.3v-19.9c-2.2-4.1-5.6-6.1-10.2-6.1c-3.6,0-6.5,1.4-8.5,4.2
		C912.6,323.1,911.6,327.2,911.6,332.7z"/>
	<path class="st2" d="M1006,343.9l10.7-33.3h7.6l-15.6,43.4h-5.7l-15.7-43.4h7.6L1006,343.9z"/>
	<path class="st2" d="M1041,299.1c0-1.2,0.4-2.2,1.1-3s1.8-1.2,3.3-1.2c1.4,0,2.5,0.4,3.3,1.2c0.7,0.8,1.1,1.8,1.1,3s-0.4,2.2-1.1,3
		s-1.8,1.2-3.3,1.2c-1.4,0-2.5-0.4-3.3-1.2S1041,300.3,1041,299.1z M1049,354h-7.4v-43.4h7.4V354z"/>
	<path class="st2" d="M1095.7,342.5c0-2-0.8-3.6-2.3-4.7s-4.1-2.1-7.9-2.9s-6.7-1.8-8.9-2.9c-2.2-1.1-3.8-2.5-4.9-4
		c-1.1-1.6-1.6-3.4-1.6-5.5c0-3.6,1.5-6.6,4.5-9c3-2.5,6.8-3.7,11.5-3.7c4.9,0,8.9,1.3,12,3.8s4.6,5.8,4.6,9.7h-7.5
		c0-2-0.9-3.8-2.6-5.3s-3.9-2.2-6.5-2.2c-2.7,0-4.8,0.6-6.3,1.8c-1.5,1.2-2.3,2.7-2.3,4.6c0,1.8,0.7,3.1,2.1,4s4,1.8,7.7,2.6
		c3.7,0.8,6.7,1.8,9,3c2.3,1.1,4,2.5,5.1,4.2c1.1,1.6,1.7,3.6,1.7,5.9c0,3.9-1.6,7-4.7,9.3s-7.1,3.5-12.1,3.5
		c-3.5,0-6.6-0.6-9.2-1.8c-2.7-1.2-4.8-2.9-6.3-5.2c-1.5-2.2-2.3-4.6-2.3-7.2h7.4c0.1,2.5,1.1,4.5,3,5.9c1.9,1.5,4.3,2.2,7.4,2.2
		c2.8,0,5.1-0.6,6.8-1.7C1094.8,345.9,1095.7,344.4,1095.7,342.5z"/>
	<path class="st2" d="M1122.3,299.1c0-1.2,0.4-2.2,1.1-3s1.8-1.2,3.3-1.2c1.4,0,2.5,0.4,3.3,1.2c0.7,0.8,1.1,1.8,1.1,3
		s-0.4,2.2-1.1,3s-1.8,1.2-3.3,1.2c-1.4,0-2.5-0.4-3.3-1.2S1122.3,300.3,1122.3,299.1z M1130.3,354h-7.4v-43.4h7.4V354z"/>
	<path class="st2" d="M1149.8,331.9c0-4.3,0.8-8.1,2.5-11.5s4-6,7-7.9c3-1.8,6.4-2.8,10.2-2.8c5.9,0,10.7,2,14.3,6.1
		c3.6,4.1,5.5,9.5,5.5,16.3v0.5c0,4.2-0.8,8-2.4,11.4s-3.9,6-6.9,7.8s-6.5,2.8-10.4,2.8c-5.9,0-10.6-2-14.3-6.1
		c-3.6-4.1-5.5-9.5-5.5-16.2L1149.8,331.9L1149.8,331.9z M1157.2,332.7c0,4.8,1.1,8.7,3.3,11.6c2.2,2.9,5.2,4.4,9,4.4s6.8-1.5,9-4.4
		c2.2-3,3.3-7.1,3.3-12.4c0-4.8-1.1-8.6-3.4-11.6s-5.3-4.4-9-4.4s-6.6,1.5-8.9,4.4C1158.3,323.2,1157.2,327.3,1157.2,332.7z"/>
	<path class="st2" d="M1215.1,310.6l0.2,5.5c3.3-4.2,7.6-6.3,13-6.3c9.2,0,13.8,5.2,13.9,15.5V354h-7.4v-28.7c0-3.1-0.7-5.4-2.1-6.9
		s-3.6-2.2-6.6-2.2c-2.4,0-4.5,0.6-6.3,1.9s-3.2,3-4.3,5.1V354h-7.4v-43.4H1215.1z"/>
	<path class="st2" d="M1289.7,354c-0.4-0.9-0.8-2.4-1-4.6c-3.4,3.6-7.6,5.4-12.4,5.4c-4.3,0-7.8-1.2-10.5-3.6s-4.1-5.5-4.1-9.2
		c0-4.5,1.7-8,5.2-10.5c3.4-2.5,8.3-3.7,14.5-3.7h7.2v-3.4c0-2.6-0.8-4.7-2.3-6.2c-1.6-1.5-3.8-2.3-6.9-2.3c-2.6,0-4.9,0.7-6.7,2
		s-2.7,3-2.7,4.9h-7.5c0-2.2,0.8-4.3,2.3-6.3s3.6-3.6,6.3-4.8c2.6-1.2,5.5-1.8,8.7-1.8c5,0,8.9,1.3,11.7,3.7
		c2.8,2.5,4.3,5.9,4.4,10.3v20c0,4,0.5,7.2,1.5,9.5v0.6H1289.7z M1277.4,348.3c2.3,0,4.5-0.6,6.6-1.8c2.1-1.2,3.6-2.8,4.5-4.7v-8.9
		h-5.8c-9.1,0-13.6,2.7-13.6,8c0,2.3,0.8,4.1,2.3,5.5C1273,347.7,1275,348.3,1277.4,348.3z"/>
	<path class="st2" d="M1338.1,317.2c-1.1-0.2-2.3-0.3-3.6-0.3c-4.9,0-8.2,2.1-9.9,6.2V354h-7.4v-43.4h7.2l0.1,5
		c2.4-3.9,5.9-5.8,10.3-5.8c1.4,0,2.5,0.2,3.3,0.6V317.2z"/>
	<path class="st2" d="M1369.4,343.1l10.1-32.5h7.9l-17.4,50.1c-2.7,7.2-7,10.8-12.9,10.8l-1.4-0.1l-2.8-0.5v-6l2,0.2
		c2.5,0,4.5-0.5,5.9-1.5s2.6-2.9,3.5-5.6l1.6-4.4l-15.5-42.9h8.1L1369.4,343.1z"/>
	<path class="st2" d="M1443.5,300.1v10.5h8.1v5.7h-8.1v26.9c0,1.7,0.4,3,1.1,3.9s2,1.3,3.7,1.3c0.9,0,2-0.2,3.5-0.5v6
		c-2,0.5-3.8,0.8-5.7,0.8c-3.3,0-5.8-1-7.5-3s-2.5-4.9-2.5-8.5v-26.9h-7.9v-5.7h7.9v-10.5L1443.5,300.1L1443.5,300.1z"/>
	<path class="st2" d="M1487.8,354.8c-5.9,0-10.7-1.9-14.4-5.8c-3.7-3.9-5.5-9-5.5-15.5v-1.4c0-4.3,0.8-8.1,2.5-11.5
		c1.6-3.4,3.9-6,6.9-7.9s6.2-2.9,9.6-2.9c5.6,0,10,1.9,13.2,5.6s4.7,9,4.7,16v3.1h-29.4c0.1,4.3,1.4,7.7,3.8,10.4
		c2.4,2.6,5.4,4,9.1,4c2.6,0,4.8-0.5,6.7-1.6c1.8-1.1,3.4-2.5,4.8-4.3l4.5,3.5C1500.5,352,1495,354.8,1487.8,354.8z M1486.8,315.9
		c-3,0-5.5,1.1-7.5,3.3c-2,2.2-3.3,5.2-3.8,9.2h21.7v-0.6c-0.2-3.8-1.2-6.7-3-8.8C1492.4,316.9,1489.9,315.9,1486.8,315.9z"/>
	<path class="st2" d="M1549.6,354c-0.4-0.9-0.8-2.4-1-4.6c-3.4,3.6-7.6,5.4-12.4,5.4c-4.3,0-7.8-1.2-10.5-3.6s-4.1-5.5-4.1-9.2
		c0-4.5,1.7-8,5.2-10.5c3.4-2.5,8.3-3.7,14.5-3.7h7.2v-3.4c0-2.6-0.8-4.7-2.3-6.2c-1.6-1.5-3.8-2.3-6.9-2.3c-2.6,0-4.9,0.7-6.7,2
		s-2.7,3-2.7,4.9h-7.5c0-2.2,0.8-4.3,2.3-6.3s3.6-3.6,6.3-4.8c2.6-1.2,5.5-1.8,8.7-1.8c5,0,8.9,1.3,11.7,3.7
		c2.8,2.5,4.3,5.9,4.4,10.3v20c0,4,0.5,7.2,1.5,9.5v0.6H1549.6z M1537.3,348.3c2.3,0,4.5-0.6,6.6-1.8c2.1-1.2,3.6-2.8,4.5-4.7v-8.9
		h-5.8c-9.1,0-13.6,2.7-13.6,8c0,2.3,0.8,4.1,2.3,5.5C1532.8,347.7,1534.8,348.3,1537.3,348.3z"/>
	<path class="st2" d="M1584,310.6l0.2,4.8c3.2-3.7,7.5-5.6,12.9-5.6c6.1,0,10.2,2.3,12.4,7c1.4-2.1,3.3-3.8,5.6-5.1
		c2.3-1.3,5-1.9,8.2-1.9c9.5,0,14.4,5,14.5,15.1V354h-7.4v-28.6c0-3.1-0.7-5.4-2.1-7c-1.4-1.5-3.8-2.3-7.1-2.3c-2.8,0-5,0.8-6.9,2.5
		c-1.8,1.6-2.9,3.9-3.2,6.6V354h-7.5v-28.4c0-6.3-3.1-9.5-9.3-9.5c-4.9,0-8.2,2.1-10,6.2V354h-7.4v-43.4H1584z"/>
</g>
</svg>
